<svg width="512" height="512" viewBox="0 0 512 512" fill="none" xmlns="http://www.w3.org/2000/svg">
<path d="M256 446C360.934 446 446 360.934 446 256C446 151.066 360.934 66 256 66C151.066 66 66 151.066 66 256C66 360.934 151.066 446 256 446Z" stroke="#FF9900" stroke-width="8" stroke-linecap="round" stroke-linejoin="round"/>
<path d="M256 326C360.934 326 446 294.66 446 256C446 217.34 360.934 186 256 186C151.066 186 66 217.34 66 256C66 294.66 151.066 326 256 326Z" stroke="#FF9900" stroke-width="8" stroke-linecap="round" stroke-linejoin="round"/>
<path d="M256 381C360.934 381 446 325.036 446 256C446 186.964 360.934 131 256 131C151.066 131 66 186.964 66 256C66 325.036 151.066 381 256 381Z" stroke="#FF9900" stroke-width="8" stroke-linecap="round" stroke-linejoin="round"/>
<path d="M256 446C294.66 446 326 360.934 326 256C326 151.066 294.66 66 256 66C217.34 66 186 151.066 186 256C186 360.934 217.34 446 256 446Z" stroke="#FF9900" stroke-width="8" stroke-linecap="round" stroke-linejoin="round"/>
<path d="M256 446C325.036 446 381 360.934 381 256C381 151.066 325.036 66 256 66C186.964 66 131 151.066 131 256C131 360.934 186.964 446 256 446Z" stroke="#FF9900" stroke-width="8" stroke-linecap="round" stroke-linejoin="round"/>
</svg>
